<svg width="200" height="200" viewBox="0 0 200 200" fill="none" xmlns="http://www.w3.org/2000/svg">
<path d="M34.512 179.04C-1.65202 158.16 -1.65202 124.304 34.512 103.44C70.676 82.5759 129.312 82.5599 165.488 103.44C201.664 124.32 201.652 158.176 165.488 179.04C129.324 199.904 70.68 199.924 34.512 179.04Z" fill="#F5F5F5"/>
<path d="M63.456 180.048C79.1497 180.048 91.872 172.704 91.872 163.644C91.872 154.584 79.1497 147.24 63.456 147.24C47.7623 147.24 35.04 154.584 35.04 163.644C35.04 172.704 47.7623 180.048 63.456 180.048Z" fill="#E0E0E0"/>
<path d="M129.134 155.977C148.838 145.35 160.524 128.786 155.235 118.98C149.947 109.175 129.686 109.841 109.982 120.468C90.278 131.096 78.5918 147.66 83.8803 157.465C89.1688 167.271 109.429 166.604 129.134 155.977Z" fill="#E0E0E0"/>
<path d="M148.74 132.684C152.68 127.988 158.852 124.928 165.792 123.12C172.648 121.34 173.876 117.12 169.332 115.756C164.184 114.204 157.76 117.052 153.616 121.016C146.4 127.924 145.492 133.2 145.492 133.2L148.74 132.684Z" fill="#2D6D9A"/>
<path opacity="0.15" d="M148.74 132.684C152.68 127.988 158.852 124.928 165.792 123.12C172.648 121.34 173.876 117.12 169.332 115.756C164.184 114.204 157.76 117.052 153.616 121.016C146.4 127.924 145.492 133.2 145.492 133.2L148.74 132.684Z" fill="black"/>
<path d="M146.712 132.4C146.683 132.406 146.653 132.406 146.624 132.4C146.6 132.389 146.579 132.373 146.562 132.353C146.544 132.333 146.531 132.31 146.522 132.285C146.514 132.26 146.51 132.234 146.512 132.208C146.514 132.181 146.52 132.156 146.532 132.132C152.38 120.132 165.332 117.18 168.468 117.404C168.52 117.408 168.569 117.433 168.603 117.472C168.638 117.512 168.655 117.564 168.652 117.616C168.647 117.669 168.622 117.718 168.581 117.752C168.541 117.786 168.489 117.804 168.436 117.8C165.364 117.568 152.648 120.492 146.892 132.308C146.872 132.338 146.845 132.361 146.814 132.378C146.782 132.394 146.747 132.401 146.712 132.4Z" fill="white"/>
<path d="M145.492 133.932C145.492 134.125 145.544 134.315 145.641 134.481C145.738 134.648 145.878 134.786 146.046 134.881C146.214 134.976 146.404 135.025 146.597 135.023C146.789 135.02 146.978 134.967 147.144 134.868C150.808 132.736 156.152 131.556 164.8 134.02C169.4 135.328 171.664 134.452 172.632 132.58C173.712 130.5 171.432 128.488 168.832 127.54C159.98 124.304 151.992 126.512 145.492 132.968V133.932Z" fill="#2D6D9A"/>
<path d="M146 134.104C145.972 134.105 145.943 134.099 145.917 134.088C145.891 134.077 145.867 134.061 145.848 134.04C145.811 134.002 145.79 133.951 145.79 133.898C145.79 133.845 145.811 133.794 145.848 133.756C153.492 126.924 165.332 128.256 169.812 130.92C169.857 130.947 169.89 130.99 169.904 131.041C169.917 131.092 169.91 131.146 169.884 131.192C169.857 131.238 169.812 131.271 169.761 131.284C169.709 131.298 169.654 131.291 169.608 131.264C165.208 128.652 153.608 127.352 146.116 134.064C146.082 134.088 146.042 134.102 146 134.104Z" fill="white"/>
<path d="M59.968 149.86C56.608 144.732 50.84 140.964 44.16 138.352C37.568 135.776 36.844 131.444 41.516 130.62C46.812 129.688 52.856 133.276 56.504 137.7C62.856 145.412 63.132 150.768 63.132 150.768L59.968 149.86Z" fill="#2D6D9A"/>
<path opacity="0.15" d="M59.968 149.86C56.608 144.732 50.84 140.964 44.16 138.352C37.568 135.776 36.844 131.444 41.516 130.62C46.812 129.688 52.856 133.276 56.504 137.7C62.856 145.412 63.132 150.768 63.132 150.768L59.968 149.86Z" fill="black"/>
<path d="M62 149.828C62.0291 149.834 62.059 149.834 62.088 149.828C62.138 149.81 62.1789 149.773 62.202 149.725C62.2252 149.678 62.2288 149.623 62.212 149.572C57.812 136.968 45.316 132.508 42.164 132.372C42.1117 132.37 42.0605 132.389 42.0216 132.424C41.9827 132.459 41.9591 132.508 41.956 132.56C41.9549 132.613 41.9741 132.665 42.0098 132.704C42.0455 132.744 42.095 132.768 42.148 132.772C45.228 132.9 57.508 137.304 61.832 149.716C61.8476 149.748 61.8714 149.775 61.9009 149.795C61.9304 149.815 61.9646 149.826 62 149.828Z" fill="white"/>
<path d="M63.16 150.524C63.1287 150.808 63.0246 151.08 62.8578 151.312C62.691 151.544 62.4671 151.73 62.2078 151.85C61.9485 151.971 61.6625 152.023 61.3774 152.001C61.0922 151.978 60.8176 151.883 60.58 151.724C57.188 149.452 52.136 147.976 43.86 149.324C39.14 150.08 36.996 148.924 36.26 146.968C35.436 144.776 37.94 143.052 40.632 142.416C49.804 140.248 57.476 143.384 63.168 150.556L63.16 150.524Z" fill="#2D6D9A"/>
<path d="M62.528 151.6C62.556 151.604 62.5844 151.602 62.6114 151.594C62.6383 151.585 62.6632 151.571 62.684 151.552C62.7209 151.514 62.7416 151.463 62.7416 151.41C62.7416 151.357 62.7209 151.306 62.684 151.268C55.884 143.584 43.984 143.508 39.22 145.624C39.1712 145.646 39.1331 145.686 39.1139 145.736C39.0948 145.786 39.0963 145.841 39.118 145.89C39.1398 145.939 39.18 145.977 39.2299 145.996C39.2798 146.015 39.3352 146.014 39.384 145.992C44.052 143.916 55.732 143.992 62.384 151.532C62.4014 151.554 62.4234 151.571 62.4483 151.583C62.4732 151.594 62.5005 151.6 62.528 151.6Z" fill="white"/>
<path d="M152.328 58.468L152.264 58.436L137.016 49.66L136.924 49.616C129.8 46.016 120.296 47.1 110.072 53.708C89.536 66.988 73.888 97.556 75.12 121.984C75.732 134.156 80.428 142.504 87.52 146.176L87.58 146.208L102.832 154.988L102.904 155.028C110.028 158.628 119.54 157.56 129.772 150.944C150.308 137.664 165.956 107.096 164.724 82.668C164.12 70.488 159.424 62.14 152.328 58.468Z" fill="#37474F"/>
<path d="M102.308 154.704L87.6 146.2L87.528 146.156C80.436 142.476 75.744 134.128 75.128 121.972C74.58 111.076 77.392 98.9681 82.488 87.7241L82.588 87.4761L97.74 96.5001C92.636 107.744 89.832 119.852 90.38 130.748C90.96 142.664 95.468 150.912 102.308 154.704Z" fill="#263238"/>
<path d="M129.78 150.936C150.316 137.656 165.964 107.088 164.732 82.6601C163.5 58.2321 145.852 49.2001 125.316 62.4801C104.78 75.7601 89.1279 106.328 90.3599 130.752C91.5919 155.176 109.244 164.216 129.78 150.936Z" fill="#455A64"/>
<path d="M147.172 56.572L121.432 109.6L115.892 103.6C114.24 101.88 111.98 100.877 109.596 100.805C107.212 100.734 104.896 101.6 103.144 103.218C101.392 104.836 100.344 107.076 100.226 109.458C100.108 111.84 100.929 114.173 102.512 115.956L117.108 131.768C118.713 133.512 120.937 134.557 123.304 134.68C123.472 134.68 123.64 134.68 123.808 134.68C124.25 134.68 124.691 134.648 125.128 134.584C126.597 134.37 127.992 133.8 129.19 132.922C130.388 132.045 131.352 130.888 132 129.552L161.52 68.752C158.492 62 153.452 57.816 147.172 56.572Z" fill="#37474F"/>
<path d="M168.076 39.108C167.916 39.016 167.748 38.928 167.58 38.848C165.693 37.9338 163.521 37.8053 161.54 38.4907C159.559 39.1761 157.93 40.6194 157.012 42.504L124.26 109.968L122.396 107.968C121.858 107.38 121.232 106.88 120.54 106.484C119.564 105.924 115.412 103.52 114.74 103.132C113.102 102.184 111.179 101.856 109.319 102.205C107.459 102.555 105.786 103.56 104.604 105.037C103.422 106.515 102.809 108.368 102.877 110.259C102.944 112.15 103.688 113.954 104.972 115.344L119.568 131.152C120.115 131.746 120.751 132.252 121.452 132.652C122.404 133.192 126.54 135.592 127.22 135.984C128.161 136.529 129.203 136.874 130.283 136.997C131.363 137.121 132.457 137.021 133.496 136.703C134.535 136.385 135.498 135.856 136.324 135.149C137.15 134.443 137.821 133.574 138.296 132.596L177.044 52.784C177.915 50.9852 178.074 48.9235 177.489 47.0125C176.903 45.1014 175.617 43.4824 173.888 42.48L168.076 39.108Z" fill="#2D6D9A"/>
<path opacity="0.15" d="M168.076 39.108C167.916 39.016 167.748 38.928 167.58 38.848C165.693 37.9338 163.521 37.8053 161.54 38.4907C159.559 39.1761 157.93 40.6194 157.012 42.504L124.26 109.968L122.396 107.968C121.858 107.38 121.232 106.88 120.54 106.484C119.564 105.924 115.412 103.52 114.74 103.132C113.102 102.184 111.179 101.856 109.319 102.205C107.459 102.555 105.786 103.56 104.604 105.037C103.422 106.515 102.809 108.368 102.877 110.259C102.944 112.15 103.688 113.954 104.972 115.344L119.568 131.152C120.115 131.746 120.751 132.252 121.452 132.652C122.404 133.192 126.54 135.592 127.22 135.984C128.161 136.529 129.203 136.874 130.283 136.997C131.363 137.121 132.457 137.021 133.496 136.703C134.535 136.385 135.498 135.856 136.324 135.149C137.15 134.443 137.821 133.574 138.296 132.596L177.044 52.784C177.915 50.9852 178.074 48.9235 177.489 47.0125C176.903 45.1014 175.617 43.4824 173.888 42.48L168.076 39.108Z" fill="black"/>
<path opacity="0.15" d="M127.2 135.968C126.528 135.568 122.4 133.168 121.436 132.636C120.735 132.235 120.099 131.73 119.552 131.136L104.956 115.328C104.312 114.626 103.801 113.813 103.448 112.928L109.252 116.276C109.604 117.163 110.118 117.977 110.768 118.676L125.36 134.484C125.897 135.067 126.517 135.567 127.2 135.968Z" fill="black"/>
<path opacity="0.15" d="M164.652 43.424C163.889 44.1083 163.267 44.9343 162.82 45.856L129.132 115.248L124.26 109.968L157.012 42.504C157.458 41.5806 158.082 40.7542 158.848 40.072L164.652 43.424Z" fill="black"/>
<path d="M173.388 42.2C171.501 41.288 169.33 41.1607 167.349 41.8459C165.368 42.5311 163.74 43.973 162.82 45.856L129.132 115.248L122.4 107.952C120.959 106.489 119.006 105.643 116.953 105.595C114.9 105.547 112.908 106.3 111.401 107.694C109.893 109.088 108.987 111.015 108.875 113.065C108.763 115.116 109.453 117.13 110.8 118.68L125.392 134.492C126.266 135.437 127.356 136.155 128.57 136.582C129.784 137.01 131.084 137.135 132.357 136.947C133.63 136.759 134.838 136.262 135.875 135.501C136.913 134.74 137.75 133.738 138.312 132.58L177.06 52.768C177.973 50.8795 178.099 48.7057 177.411 46.7242C176.722 44.7427 175.275 43.1155 173.388 42.2Z" fill="#2D6D9A"/>
<path d="M62.892 49.9999C59.84 49.9999 57.752 50.7999 55.584 53.8799C53.584 56.7119 48.128 66.1519 48.128 66.1519C48.128 66.1519 44.128 57.9439 43.728 56.3079C43.328 54.6719 43.352 53.9439 43.728 53.2319C44.2785 52.3903 44.6238 51.4313 44.736 50.4319C44.892 48.4639 45.372 46.7799 44.932 46.7239C43.712 46.6559 43.664 48.2239 43.024 49.1479C42.9427 49.2371 42.8415 49.3059 42.7287 49.3487C42.6158 49.3915 42.4945 49.4071 42.3745 49.3942C42.2545 49.3814 42.1392 49.3404 42.038 49.2747C41.9368 49.2089 41.8525 49.1203 41.792 49.0159C41.524 48.4679 41.668 47.5679 41.54 46.9199C41.5746 46.5593 41.6321 46.2012 41.712 45.8479C42.174 45.931 42.6459 45.9445 43.112 45.8879C43.64 46.7159 44 47.0639 44.736 46.7279C44.832 46.5759 44.42 45.5279 43.936 44.7279C43.8633 44.6055 43.7455 44.5165 43.608 44.4799C42.7206 44.2552 41.7945 44.2292 40.896 44.4039C40.828 44.4109 40.7622 44.4315 40.7024 44.4644C40.6426 44.4974 40.5901 44.5421 40.548 44.5959C40.2103 45.0906 39.9412 45.6289 39.748 46.1959C39.696 46.3679 39.536 46.3639 39.496 46.2159C39.096 44.2839 39.096 41.5399 39.096 40.2559C39.096 39.2439 37.62 39.0839 37.568 40.5319C37.4803 42.4747 37.5137 44.4212 37.668 46.3599C37.668 46.5359 37.492 46.6199 37.42 46.4279C37.164 45.7439 36.536 43.6759 36.272 40.1079C36.2 39.1479 34.648 38.9919 34.672 40.3399C34.7328 42.7298 35.0438 45.1068 35.6 47.4319C35.648 47.5999 35.492 47.7479 35.376 47.5559C34.6478 46.1527 34.0661 44.6783 33.64 43.1559C33.308 41.9959 31.76 42.2919 32.04 43.7359C32.524 46.3239 33.292 49.5959 34.44 51.9359C35.664 54.4359 36.72 55.6879 37.328 57.6519C37.936 59.6159 40.452 70.7399 43.144 75.0759C45.252 78.4759 47.664 78.1599 50.26 76.3679C52.856 74.5759 62.132 61.6519 62.132 61.6519L62.892 49.9999Z" fill="#9E6767"/>
<path d="M48.128 66.1479C48.128 66.1479 49.428 68.3519 49.628 70.1159C49.9584 68.4032 49.6298 66.6288 48.708 65.1479L48.128 66.1479Z" fill="#874C4C"/>
<path d="M63.54 49.9999C61.988 49.8399 60.056 49.7879 57.904 51.1439C55.752 52.4999 55 54.3879 53.956 56.0399C52.912 57.6919 49.304 63.5439 49.304 63.5439C49.304 63.5439 50.628 69.0999 55.892 70.2439L63.776 59.5479L63.54 49.9999Z" fill="#455A64"/>
<path d="M70.608 147.692C71.008 147.64 71.54 149.004 71.548 149.448C71.556 149.892 71.108 150.848 70.52 151.744C69.7341 152.811 69.0825 153.97 68.58 155.196C68.128 156.428 67.712 157.236 66.452 158.848C65.052 160.644 61.764 163.648 56.772 162.344C55.552 162.024 54.944 161.64 54.5 161.196C54.3052 160.999 54.1694 160.752 54.1079 160.482C54.0464 160.212 54.0616 159.93 54.152 159.668L70.608 147.692Z" fill="#263238"/>
<path d="M60.8 146.132V146.176C60.7427 146.55 60.7536 146.93 60.832 147.3C60.9692 148.402 60.8715 149.52 60.5454 150.581C60.2193 151.642 59.6721 152.622 58.94 153.456C58.2446 154.182 57.4596 154.816 56.6039 155.344C54.0759 156.944 53.8039 158.036 54.1599 159.668C55.0079 161.568 60.7399 162.724 64.0359 159.896C65.4581 158.792 66.5453 157.314 67.176 155.628C67.6543 154.42 68.2101 153.244 68.84 152.108C69.476 150.908 70.684 149.556 70.72 148.32C70.74 147.64 70.0679 146.376 69.4159 145.336C68.8159 144.38 68.196 143.472 67.656 143.576L67.808 144.116C67.356 144.584 66.7039 144.76 66.3119 145.316C65.8239 145.992 65.84 146.916 65.54 147.676C65.5302 147.715 65.5118 147.752 65.4862 147.783C65.4606 147.814 65.4284 147.839 65.3919 147.856C65.3497 147.863 65.3063 147.856 65.2681 147.837C65.23 147.818 65.1991 147.786 65.1799 147.748C65.1473 147.67 65.1323 147.585 65.1359 147.5L65.0999 146.336C65.118 146.112 65.0587 145.889 64.932 145.704C64.62 145.352 63.8519 145.392 63.4239 145.376C62.8479 145.381 62.2724 145.415 61.6999 145.48C61.5016 145.46 61.3027 145.513 61.14 145.628C60.9765 145.756 60.8575 145.932 60.8 146.132Z" fill="#37474F"/>
<path d="M52.328 122.876C53.66 127.256 59.8879 142.42 60.2599 143.332L61.4999 146.34C62.3165 146.608 63.1915 146.646 64.028 146.448C64.16 147.9 64.38 150.176 64.464 151.324C64.496 152.656 64.6119 154.304 64.3239 155.62C64.0799 156.74 63.796 157.916 63.584 159.04C63.492 159.536 63.3999 160.036 63.3239 160.536C63.1949 161.059 63.2384 161.611 63.4479 162.108C63.5755 162.325 63.744 162.515 63.9439 162.668C64.8324 163.366 65.9553 163.695 67.0799 163.588C67.6746 163.559 68.2501 163.368 68.7439 163.036C69.7119 162.344 70.0519 161.14 70.5439 160.116C71.0799 159.008 70.9079 158.884 70.9439 157.696C70.9759 156.864 71.208 154.752 71.54 152.544C71.872 150.336 73.3039 142.576 73.9919 134.844C74.2724 131.41 74.2724 127.958 73.9919 124.524C79.4559 109.68 81.8879 100.852 82.6039 95.9238C83.3279 90.9158 82.9799 89.1238 82.8879 86.2478L56.3159 86.8878C54.1879 100.624 50.54 117.004 52.328 122.876Z" fill="#9E6767"/>
<path d="M51.9119 111.916C52.4599 106.868 56.2359 87.4639 56.2359 87.4639H83.0039C83.0039 87.4639 83.176 91.1879 83.128 92.8999C83.08 94.6119 82.5279 97.7359 81.5719 101.7C80.6159 105.664 77.0719 116.852 76.3719 118.5C75.6719 120.148 74.3719 124.928 74.3719 124.928C75.0279 133.904 73.32 141.96 72.04 152.668C72.04 152.668 71.6679 154.112 67.8759 153.828C64.1879 153.548 63.4439 152.188 63.4439 152.188L63.1999 142.952C63.1999 142.952 61.1999 143.568 59.9999 143.288C59.9999 143.288 52.0759 123.724 51.6919 122.548C51.3079 121.372 51.3639 116.964 51.9119 111.916Z" fill="#2D6D9A"/>
<path opacity="0.45" d="M51.9119 111.916C52.4599 106.868 56.2359 87.4639 56.2359 87.4639H83.0039C83.0039 87.4639 83.176 91.1879 83.128 92.8999C83.08 94.6119 82.5279 97.7359 81.5719 101.7C80.6159 105.664 77.0719 116.852 76.3719 118.5C75.6719 120.148 74.3719 124.928 74.3719 124.928C75.0279 133.904 73.32 141.96 72.04 152.668C72.04 152.668 71.6679 154.112 67.8759 153.828C64.1879 153.548 63.4439 152.188 63.4439 152.188L63.1999 142.952C63.1999 142.952 61.1999 143.568 59.9999 143.288C59.9999 143.288 52.0759 123.724 51.6919 122.548C51.3079 121.372 51.3639 116.964 51.9119 111.916Z" fill="black"/>
<path opacity="0.2" d="M63.268 100.112C59.476 96.6958 58.632 93.9758 58.632 93.9758C60.5384 96.1236 62.7959 97.932 65.308 99.3238C65.308 99.3238 61.708 118.332 61.972 122.24C62.236 126.148 63.2 142.952 63.2 142.952C63.2 143.112 60.648 125.18 60.572 123.752C60.4 119.972 63.268 100.112 63.268 100.112Z" fill="black"/>
<path d="M71.5999 162.184C71.9719 162.292 71.9239 163.404 71.7559 163.82C71.3397 164.546 70.7501 165.157 70.0399 165.6C68.9992 166.309 68.1311 167.242 67.4999 168.332C66.4729 169.903 65.1144 171.23 63.5199 172.22C61.3962 173.425 58.893 173.775 56.5199 173.2C54.0079 172.488 53.7759 171.872 53.7959 170.924L71.5999 162.184Z" fill="#263238"/>
<path d="M63.84 156.368C63.18 159.568 62.032 161.92 59.372 163.896C57.252 165.472 55.716 166.272 54.024 167.676C53.308 168.276 53.248 169.552 53.796 170.928C54.94 171.844 56.564 172.372 58.744 172.368C61.184 172.368 62.12 171.932 63.52 170.976C64.2077 170.506 64.848 169.97 65.432 169.376C66.604 168.2 67.432 166.748 68.264 165.816C69.096 164.884 70.94 163.932 71.464 162.808C71.752 162.192 71.632 160.764 71.44 159.548C71.264 158.432 71.604 156.472 71.068 156.348L70.992 157.148C70.948 157.328 70.836 157.42 70.46 157.548C70.122 157.621 69.7734 157.631 69.432 157.576C69.3106 157.532 69.1786 157.527 69.0544 157.562C68.9302 157.598 68.8203 157.671 68.74 157.772C68.38 158.196 68.284 158.796 67.82 159.148C67.79 159.174 67.7544 159.193 67.716 159.204C67.6981 159.214 67.6779 159.219 67.6574 159.218C67.637 159.217 67.6171 159.211 67.6 159.2C67.5876 159.181 67.5794 159.159 67.5759 159.136C67.5725 159.113 67.5739 159.09 67.58 159.068L67.712 157.868C67.7279 157.749 67.7279 157.627 67.712 157.508C67.6869 157.396 67.6382 157.292 67.5692 157.201C67.5002 157.11 67.4125 157.034 67.312 156.98C66.9751 156.784 66.6131 156.635 66.236 156.536C65.8435 156.429 65.4416 156.361 65.036 156.332C64.6379 156.281 64.2343 156.293 63.84 156.368Z" fill="#455A64"/>
<path d="M80.588 51.1479C80.588 51.1479 81.688 52.6599 82.588 55.7759C83.6835 60.8934 84.2465 66.1105 84.268 71.3439C84.268 78.4119 83.316 89.8639 83.316 89.8639C75.112 93.9759 61.88 91.5439 56.056 87.5319C56.292 86.2599 56.492 79.5719 56.952 75.1599C57.26 67.5919 57.516 63.6279 57.568 60.2599C57.676 53.5319 61.024 50.0559 63.568 50.0039L69.992 50.1039L80.588 51.1479Z" fill="#2D6D9A"/>
<path d="M82.612 87.7878C81.392 88.7918 79.012 90.7198 78.56 91.6918C78.056 92.8038 77.76 94.4918 77.42 95.1238C77.08 95.7558 77.592 96.0758 78.296 95.8478C79 95.6198 79.42 95.0238 79.964 93.5678C80.508 92.1118 82.02 90.9718 82.02 90.9718L82.612 87.7878Z" fill="#874C4C"/>
<path d="M78.156 100.88C78.448 101.444 79.128 101.448 79.756 101.496C80.5216 101.584 81.2972 101.496 82.024 101.24C82.8974 100.988 83.6635 100.455 84.204 99.7239C84.82 98.8359 84.98 97.7239 85.332 96.7039C86.068 94.5639 88.26 93.02 88.62 90.752C88.768 89.816 88.768 88.7119 89.02 88.1319C89.176 87.7879 92.78 81.584 94.068 78.896C95.3 76.312 96.224 75.0959 95.104 71.9919C93.984 68.8879 90.172 57.9639 87.472 54.1679C85.944 52.0159 83.516 51.3999 80.572 51.1479C78.332 56.9799 80.936 63.008 80.936 63.008L86.88 74.44C86.88 74.44 84.576 82.3119 83.136 86.6879C82.736 87.8879 81.936 88.6559 81.02 90.0039C80.62 90.5879 79.716 91.604 79.396 92.24C78.996 93.04 78.996 93.5679 78.796 94.6999C78.484 96.5039 78 100.612 78.156 100.88Z" fill="#9E6767"/>
<path d="M80.272 51.116C81.82 51.176 84.044 51.44 85.372 52.112C86.7 52.784 87.624 53.612 89.152 56.676C90.68 59.74 92.916 65.692 92.916 65.692C92.916 65.692 92.176 70.184 85.072 71.348L80.272 62.496C80.272 62.496 78.132 56.98 80.272 51.116Z" fill="#455A64"/>
<path d="M61.8159 36.8199C62.0258 37.1994 62.2076 37.5938 62.3599 37.9999C62.5966 38.5303 62.899 39.0289 63.2599 39.4839C64.1799 40.5439 65.472 41.3199 66.652 42.0719C67.364 42.5279 68.18 42.9559 69.052 42.8319C69.924 42.7079 70.896 42.8959 71.796 42.9759L74.944 43.2599L74.7679 46.5679C74.7679 46.5679 75.1679 45.6919 75.6919 44.6439C76.1479 43.7439 78.0599 39.1799 78.0679 39.1599C79.0159 36.8999 80.14 33.8839 79.008 31.5079C78.7506 30.9228 78.3208 30.4302 77.776 30.0959C77.8856 29.7306 77.9209 29.3471 77.8799 28.9679C77.817 28.4296 77.6341 27.9122 77.3447 27.454C77.0554 26.9957 76.6669 26.6082 76.208 26.3199C75.3121 25.7145 74.3022 25.298 73.24 25.0959C71.8311 24.7718 70.3895 24.6121 68.9439 24.6199C67.5276 24.6631 66.1173 24.825 64.728 25.1039C63.9529 25.2471 63.1678 25.3286 62.3799 25.3479C62.0406 25.3701 61.6997 25.354 61.364 25.2999C60.9466 25.1752 60.5366 25.0269 60.1359 24.8559C60.1011 24.8413 60.0637 24.8337 60.026 24.8337C59.9882 24.8337 59.9508 24.8413 59.9159 24.8559C59.8842 24.877 59.8574 24.9047 59.8373 24.9372C59.8173 24.9696 59.8046 25.006 59.7999 25.0439C59.6959 25.5433 59.7003 26.0592 59.8128 26.5567C59.9252 27.0542 60.1432 27.5218 60.452 27.9279C60.272 27.9033 60.0968 27.8521 59.9319 27.7759C59.7448 27.6893 59.5643 27.589 59.3919 27.4759C59.0984 27.2791 58.8412 27.0327 58.6319 26.7479C58.6031 26.7033 58.559 26.6706 58.508 26.6559C58.428 26.6559 58.3639 26.7119 58.3159 26.7759C58.1001 27.097 57.9531 27.4593 57.8842 27.84C57.8154 28.2207 57.8262 28.6116 57.9159 28.9879C58.0924 29.7433 58.4492 30.4446 58.9559 31.0319C58.7087 31.4313 58.566 31.8865 58.5408 32.3555C58.5157 32.8245 58.6089 33.2924 58.8119 33.7159C58.9899 34.0916 59.2291 34.4349 59.52 34.7319C59.88 35.0999 60.32 35.3999 60.684 35.7439C61.1014 36.0579 61.4812 36.419 61.8159 36.8199Z" fill="#37474F"/>
<path d="M71.404 31.308C71.3924 31.9053 71.4692 32.5011 71.632 33.076C71.8218 33.5809 72.1273 34.0344 72.524 34.4C72.9727 34.7807 73.3876 35.1996 73.764 35.652C74.1703 36.3561 74.4085 37.1446 74.46 37.956C74.4623 38.1949 74.5181 38.4304 74.6233 38.6449C74.7285 38.8595 74.8805 39.0478 75.068 39.196C75.924 39.728 76.436 38.7 76.892 38.196C77.48 37.652 79.228 36.996 80.036 38.844C80.872 40.764 79.328 43.308 77.924 43.7C75.504 44.376 74.976 42.728 74.976 42.728L74.512 51.368C73.148 53.956 69.94 54.78 67.832 54.368C66.012 54.012 65.012 52.736 66.724 50.888L66.816 48.256C66.816 48.256 64.632 48.516 63.58 48.316C61.824 47.988 60.956 46.496 60.48 44.572C59.724 41.48 59.376 38.228 60.316 31.264C60.744 31.028 62.476 32.376 65.116 32.556C67.2858 32.7089 69.457 32.278 71.404 31.308Z" fill="#9E6767"/>
<path d="M66.8 48.2479C66.8 48.2479 70.76 47.5839 72.16 46.8959C72.9815 46.5003 73.6646 45.866 74.12 45.0759C73.8862 45.8738 73.4944 46.6165 72.968 47.2599C71.92 48.5119 66.764 49.2959 66.764 49.2959L66.8 48.2479Z" fill="#874C4C"/>
<path d="M68.86 34.3998L70.704 34.9638C70.7745 34.7119 70.7447 34.4425 70.621 34.212C70.4972 33.9816 70.289 33.8081 70.04 33.7278C69.9184 33.6922 69.7908 33.6814 69.665 33.6961C69.5391 33.7108 69.4175 33.7507 69.3074 33.8134C69.1973 33.8761 69.1009 33.9603 69.024 34.0611C68.9472 34.1618 68.8914 34.277 68.86 34.3998Z" fill="#263238"/>
<path d="M68.22 43.136L65.504 44.056C65.5568 44.2375 65.6456 44.4066 65.7651 44.5531C65.8846 44.6997 66.0322 44.8208 66.1994 44.9092C66.3665 44.9976 66.5497 45.0516 66.738 45.0679C66.9264 45.0841 67.1161 45.0624 67.296 45.004C67.6614 44.8722 67.9617 44.6042 68.134 44.256C68.3062 43.9078 68.337 43.5064 68.22 43.136Z" fill="#874C4C"/>
<path d="M68 43.7998C67.6455 43.8001 67.3011 43.9181 67.0209 44.1353C66.7407 44.3525 66.5406 44.6566 66.452 44.9998C66.7261 45.0899 67.0218 45.0899 67.296 44.9998C67.549 44.9103 67.7728 44.7535 67.9434 44.5463C68.1139 44.3391 68.2248 44.0893 68.264 43.8238C68.1769 43.8079 68.0885 43.7999 68 43.7998Z" fill="#F28F8F"/>
<path d="M60.628 34.692L62.504 34.448C62.4897 34.3265 62.4513 34.2091 62.391 34.1028C62.3307 33.9964 62.2496 33.9032 62.1527 33.8286C62.0558 33.7541 61.9449 33.6997 61.8266 33.6686C61.7083 33.6376 61.585 33.6306 61.464 33.648C61.2167 33.6801 60.9914 33.8067 60.8355 34.0014C60.6796 34.1961 60.6052 34.4436 60.628 34.692Z" fill="#263238"/>
<path d="M72.16 35.4919L78.348 37.5999C78.0012 37.6039 77.6601 37.6875 77.3507 37.8443C77.0414 38.001 76.7723 38.2267 76.564 38.5039L72.184 36.8399L72.16 35.4919Z" fill="#263238"/>
<path d="M61.552 37.908C61.5449 38.0075 61.5579 38.1075 61.5901 38.2019C61.6222 38.2964 61.673 38.3835 61.7394 38.458C61.8057 38.5326 61.8863 38.5931 61.9764 38.636C62.0665 38.6789 62.1643 38.7034 62.264 38.708C62.3633 38.709 62.4618 38.6905 62.5539 38.6535C62.646 38.6165 62.73 38.5617 62.8009 38.4922C62.8718 38.4227 62.9284 38.34 62.9674 38.2487C63.0063 38.1573 63.0269 38.0592 63.028 37.96C63.035 37.8604 63.0221 37.7604 62.9899 37.666C62.9577 37.5715 62.9069 37.4844 62.8406 37.4099C62.7742 37.3353 62.6936 37.2748 62.6035 37.2319C62.5134 37.189 62.4157 37.1645 62.316 37.16C62.2167 37.1589 62.1182 37.1774 62.026 37.2144C61.9339 37.2514 61.85 37.3063 61.779 37.3757C61.7081 37.4452 61.6515 37.5279 61.6126 37.6192C61.5736 37.7106 61.553 37.8087 61.552 37.908Z" fill="#263238"/>
<path d="M68.62 37.9079C68.6209 38.053 68.6644 38.1947 68.7452 38.3153C68.8259 38.4359 68.9404 38.5301 69.0743 38.5861C69.2082 38.6421 69.3556 38.6576 69.4982 38.6304C69.6408 38.6033 69.7723 38.5349 69.8763 38.4336C69.9802 38.3324 70.0522 38.2027 70.083 38.0609C70.1139 37.9191 70.1024 37.7713 70.0499 37.636C69.9975 37.5006 69.9064 37.3837 69.788 37.2998C69.6695 37.2158 69.5291 37.1686 69.384 37.1639C69.1842 37.1617 68.9916 37.2388 68.8485 37.3782C68.7053 37.5176 68.6232 37.708 68.62 37.9079Z" fill="#263238"/>
<path d="M57.9 35.9399C57.9453 36.2634 58.0843 36.5666 58.3 36.8119C58.3743 36.9032 58.4276 37.0097 58.456 37.1239C58.6 37.7199 58.724 38.8479 59.008 39.4799C59.2009 39.9893 59.5493 40.425 60.0038 40.7251C60.4583 41.0253 60.9958 41.1746 61.54 41.1519C61.8298 41.1628 62.1199 41.1386 62.404 41.0799H62.468C62.7146 41.0219 62.9516 40.9289 63.172 40.8039L63.212 40.7759L63.272 40.7399L63.348 40.6879L63.416 40.6319L63.492 40.5719C63.5187 40.5538 63.5429 40.5323 63.564 40.5079C63.6123 40.4643 63.6578 40.4175 63.7 40.3679C63.9361 40.1039 64.1267 39.8024 64.264 39.4759C64.632 38.6519 64.536 37.4999 65.136 37.3639H65.208H65.288C66.088 37.3639 66.016 38.6319 66.488 39.5279C66.96 40.4239 67.688 41.2999 69.476 41.3239H69.704C69.7653 41.328 69.8267 41.328 69.888 41.3239C70.032 41.3151 70.1751 41.2951 70.316 41.2639L70.448 41.2319C70.4913 41.2223 70.534 41.2103 70.576 41.1959L70.66 41.1719C70.8275 41.1129 70.9884 41.0365 71.14 40.9439C71.1957 40.9116 71.2492 40.8756 71.3 40.8359C71.3993 40.7633 71.4917 40.6816 71.576 40.5919C71.8041 40.3489 71.9869 40.0672 72.116 39.7599C72.392 39.1399 72.464 38.0119 72.6 37.4239C72.6238 37.3031 72.67 37.1878 72.736 37.0839C72.9496 36.8497 73.0888 36.5574 73.136 36.2439C73.1456 36.0833 73.1022 35.924 73.0127 35.7904C72.9231 35.6567 72.7922 35.5561 72.64 35.5039L72.204 35.4479C70.804 35.2759 68.98 35.2039 67.888 35.4999C66.52 35.8719 66.044 36.2999 65.28 36.2999C64.516 36.2999 64.104 35.8279 62.804 35.4039C61.772 35.0679 60.064 35.0799 58.76 35.1999L58.36 35.2399C58.2177 35.2909 58.0959 35.3867 58.0129 35.513C57.9299 35.6393 57.8903 35.7891 57.9 35.9399ZM66.908 36.7999C67.016 36.666 67.1527 36.558 67.308 36.4839C67.3293 36.4684 67.3521 36.455 67.376 36.4439H67.416C67.476 36.4119 67.54 36.3799 67.608 36.3519L67.788 36.2799C67.9789 36.2074 68.1739 36.1459 68.372 36.0959L68.604 36.0399C68.804 35.9999 69.004 35.9679 69.204 35.9479C69.2519 35.9441 69.3001 35.9441 69.348 35.9479C70.664 35.8399 71.488 36.1519 71.788 36.4199C72.088 36.6879 71.956 37.9199 71.832 38.5399V38.5839C71.832 38.5839 71.832 38.6159 71.832 38.6319C71.832 38.7079 71.8 38.7919 71.776 38.8839C71.752 38.9759 71.748 38.9839 71.732 39.0359C71.704 39.1199 71.676 39.2039 71.644 39.2919C71.6323 39.322 71.619 39.3514 71.604 39.3799C71.5984 39.3977 71.5917 39.415 71.584 39.4319L71.556 39.4919L71.52 39.5639L71.476 39.6479C71.476 39.6759 71.44 39.7039 71.42 39.7319C71.4037 39.7627 71.385 39.7921 71.364 39.8199C71.1577 40.1117 70.8795 40.3453 70.5565 40.498C70.2334 40.6508 69.8764 40.7176 69.52 40.6919C69.1619 40.7115 68.8037 40.6553 68.4687 40.5271C68.1337 40.3989 67.8296 40.2016 67.576 39.9479C67.2602 39.5935 67.0412 39.1637 66.94 38.6999C66.744 37.9999 66.652 37.1759 66.908 36.7999ZM59.156 36.1559C59.2512 36.0714 59.3592 36.0025 59.476 35.9519H59.5L59.644 35.8959L59.732 35.8679H59.804H59.852H59.872H59.944C60.036 35.8679 60.136 35.8319 60.248 35.8159H60.412H60.944C61.136 35.8159 61.344 35.8439 61.552 35.8719C62.492 36.0079 63.476 36.4439 63.732 36.8319C63.988 37.2199 63.932 38.0319 63.808 38.7079C63.7811 38.8657 63.741 39.0209 63.688 39.1719C63.6868 39.1839 63.6868 39.196 63.688 39.2079C63.688 39.2079 63.688 39.2359 63.688 39.2519V39.2839L63.664 39.3399L63.616 39.4519C63.616 39.4839 63.584 39.5199 63.564 39.5519C63.5647 39.5626 63.5647 39.5733 63.564 39.5839L63.524 39.6519L63.488 39.7079C63.2746 40.0224 62.979 40.2722 62.6334 40.4302C62.2878 40.5882 61.9054 40.6483 61.528 40.6039C61.1864 40.5966 60.8506 40.5147 60.544 40.3639C59.608 39.8919 59.368 38.8399 59.26 38.3639C59.06 37.6479 58.876 36.4199 59.156 36.1519V36.1559Z" fill="#263238"/>
<path d="M65.504 37.3838L65.364 42.5278L62.496 41.6958L65.172 37.3398C65.2845 37.329 65.3981 37.3441 65.504 37.3838Z" fill="#874C4C"/>
<path d="M105.608 38.0359C113.793 38.0359 120.428 32.2246 120.428 25.0559C120.428 17.8873 113.793 12.0759 105.608 12.0759C97.4231 12.0759 90.788 17.8873 90.788 25.0559C90.788 32.2246 97.4231 38.0359 105.608 38.0359Z" fill="#2D6D9A"/>
<path d="M93.78 32.564C93.696 34.304 92.224 37.416 89.564 38.564C89.5284 38.5791 89.4986 38.605 89.4786 38.638C89.4586 38.6711 89.4495 38.7096 89.4526 38.7481C89.4557 38.7866 89.4708 38.8231 89.4958 38.8525C89.5208 38.8819 89.5545 38.9027 89.592 38.912C91.1126 39.2489 92.6985 39.1347 94.1551 38.5834C95.6117 38.032 96.8757 37.0674 97.792 35.808L93.78 32.564Z" fill="#2D6D9A"/>
<path d="M95.56 24.0279C95.5934 23.4591 95.7289 22.9008 95.96 22.3799C96.1777 21.8703 96.5024 21.4133 96.912 21.0399C97.3447 20.644 97.85 20.3356 98.4 20.1319C99.719 19.6839 101.149 19.6839 102.468 20.1319C103.023 20.3347 103.534 20.643 103.972 21.0399C104.38 21.421 104.702 21.8846 104.916 22.3999C105.147 22.9208 105.283 23.4791 105.316 24.0479C105.336 24.4959 105.344 24.9639 105.344 25.4519C105.344 25.9399 105.344 26.3999 105.316 26.8239C105.283 27.3928 105.147 27.951 104.916 28.4719C104.696 28.9825 104.372 29.4416 103.964 29.8199C103.529 30.2206 103.017 30.5294 102.46 30.7279C101.139 31.1652 99.7127 31.1652 98.392 30.7279C97.8369 30.5298 97.3279 30.2209 96.896 29.8199C96.487 29.4428 96.1626 28.9834 95.944 28.4719C95.7129 27.951 95.5774 27.3928 95.544 26.8239C95.524 26.3999 95.512 25.9399 95.512 25.4519C95.512 24.9639 95.54 24.4759 95.56 24.0279ZM102.4 26.7279C102.4 26.5399 102.42 26.3279 102.432 26.1039C102.444 25.8799 102.432 25.6399 102.432 25.3999C102.432 25.1599 102.432 24.9279 102.432 24.7039C102.432 24.4799 102.408 24.3039 102.4 24.1039C102.383 23.8582 102.327 23.6166 102.236 23.3879C102.15 23.1742 102.022 22.9797 101.86 22.8159C101.689 22.6483 101.485 22.5188 101.26 22.4359C100.714 22.2494 100.122 22.2494 99.576 22.4359C99.3506 22.5197 99.145 22.6491 98.972 22.8159C98.8111 22.9799 98.6846 23.1744 98.6 23.3879C98.5085 23.6166 98.4532 23.8582 98.436 24.1039C98.4113 24.303 98.398 24.5033 98.396 24.7039C98.396 24.9279 98.396 25.1599 98.396 25.3999C98.396 25.6399 98.396 25.8719 98.396 26.1039C98.398 26.3125 98.4114 26.5208 98.436 26.7279C98.4602 27.2087 98.6495 27.6665 98.972 28.0239C99.1636 28.2052 99.3911 28.3445 99.6398 28.4326C99.8885 28.5208 100.153 28.556 100.416 28.5359C100.678 28.5569 100.941 28.5221 101.189 28.4338C101.436 28.3456 101.662 28.2059 101.852 28.0239C102.172 27.6636 102.364 27.2083 102.4 26.7279Z" fill="#FAFAFA"/>
<path d="M116.4 30.3639C116.433 30.4148 116.449 30.4753 116.444 30.5359C116.445 30.5806 116.436 30.625 116.419 30.6662C116.402 30.7075 116.376 30.7448 116.344 30.7759C116.313 30.8086 116.276 30.8346 116.235 30.8525C116.193 30.8704 116.149 30.8797 116.104 30.8799H113.6C113.473 30.8845 113.348 30.8511 113.24 30.7839C113.136 30.708 113.042 30.6193 112.96 30.5199L110 26.7999V30.4519C109.998 30.5597 109.956 30.6631 109.882 30.7415C109.808 30.82 109.708 30.8679 109.6 30.8759H107.552C107.496 30.8763 107.442 30.8651 107.391 30.843C107.34 30.821 107.294 30.7886 107.256 30.7479C107.216 30.7098 107.184 30.6638 107.163 30.6129C107.142 30.5619 107.131 30.5071 107.132 30.4519V20.3759C107.131 20.3207 107.142 20.2659 107.163 20.2149C107.184 20.164 107.216 20.118 107.256 20.0799C107.294 20.0392 107.34 20.0068 107.391 19.9847C107.442 19.9627 107.496 19.9515 107.552 19.9519H109.6C109.708 19.9599 109.808 20.0078 109.882 20.0863C109.956 20.1647 109.998 20.268 110 20.3759V23.6679L112.748 20.2959C112.811 20.2206 112.878 20.1485 112.948 20.0799C113.067 19.9832 113.219 19.9372 113.372 19.9519H115.804C115.85 19.9515 115.895 19.9606 115.937 19.9785C115.979 19.9964 116.017 20.0227 116.048 20.0559C116.08 20.087 116.106 20.1243 116.123 20.1656C116.14 20.2068 116.149 20.2512 116.148 20.2959C116.152 20.357 116.135 20.4177 116.1 20.4679L112.26 25.1999L116.4 30.3639Z" fill="#FAFAFA"/>
<path d="M143.848 37.3279L141.604 38.0039L139.984 32.5919L142.22 31.9199L143.848 37.3279Z" fill="#E0E0E0"/>
<path d="M150.852 32.5239C150.871 32.7434 150.819 32.9632 150.705 33.1516C150.591 33.3399 150.419 33.4871 150.216 33.5719C150.362 33.7373 150.47 33.9325 150.532 34.1439C150.66 34.5439 150.32 35.1239 149.644 35.3439L144.512 36.8879L143.004 31.8599C143.004 31.8599 143.872 29.6399 143.916 29.3039C143.96 28.9679 143.448 27.7359 143.376 27.5039C143.304 27.2719 144.136 26.9679 144.792 27.2319C144.945 27.2997 145.081 27.3993 145.192 27.5239C145.428 27.7752 145.626 28.0595 145.78 28.3679C145.998 28.8074 146.105 29.2935 146.092 29.7839L149.2 28.8359C149.415 28.7583 149.649 28.7583 149.864 28.8359C150.004 28.8914 150.128 28.9822 150.223 29.0996C150.318 29.217 150.381 29.3569 150.406 29.5058C150.431 29.6547 150.417 29.8076 150.366 29.9495C150.314 30.0914 150.227 30.2177 150.112 30.3159C150.297 30.3025 150.481 30.3516 150.635 30.4553C150.789 30.559 150.903 30.7113 150.96 30.8879C151.007 31.0931 150.982 31.3085 150.889 31.4973C150.796 31.6862 150.64 31.8369 150.448 31.9239C150.655 32.0639 150.8 32.279 150.852 32.5239Z" fill="#E0E0E0"/>
<path d="M176 93.4439L173.124 92.7519L174.8 85.8159L177.676 86.5079L176 93.4439Z" fill="#E0E0E0"/>
<path d="M186.708 92.664C186.589 92.9152 186.393 93.1222 186.148 93.2551C185.904 93.3881 185.624 93.4402 185.348 93.404C185.4 93.677 185.393 93.9578 185.328 94.228C185.2 94.768 184.468 95.164 183.604 94.952L177.02 93.352L178.572 86.908C178.572 86.908 180.936 85.04 181.196 84.7C181.456 84.36 181.68 82.7 181.752 82.392C181.824 82.084 182.924 82.292 183.472 83C183.605 83.172 183.698 83.3715 183.744 83.584C183.841 84.0073 183.876 84.4425 183.848 84.876C183.805 85.4952 183.613 86.0948 183.288 86.624L187.264 87.584C187.546 87.6438 187.798 87.801 187.976 88.028C188.075 88.1575 188.144 88.3066 188.181 88.4652C188.218 88.6238 188.22 88.7884 188.188 88.948C188.135 89.1583 188.024 89.3495 187.867 89.5C187.711 89.6505 187.516 89.7544 187.304 89.8C187.514 89.903 187.684 90.0738 187.786 90.285C187.887 90.4961 187.915 90.7353 187.864 90.964C187.783 91.2168 187.618 91.4342 187.396 91.5798C187.173 91.7254 186.908 91.7904 186.644 91.764C186.782 92.0442 186.805 92.3671 186.708 92.664Z" fill="#E0E0E0"/>
<path d="M30.728 89.296L33.868 90.24L36.14 82.664L33.004 81.72L30.728 89.296Z" fill="#E0E0E0"/>
<path d="M20.916 82.564C20.8898 82.8716 20.9621 83.1797 21.1225 83.4435C21.2828 83.7074 21.5229 83.9135 21.808 84.032C21.6064 84.2645 21.4565 84.5372 21.368 84.832C21.188 85.42 21.668 86.208 22.608 86.488L29.808 88.652L31.912 81.6C31.912 81.6 30.692 78.488 30.632 78C30.572 77.512 31.292 75.808 31.388 75.48C31.468 75.216 30.324 74.732 29.388 75.104C29.1655 75.1912 28.9658 75.328 28.804 75.504C28.4717 75.8611 28.194 76.2655 27.98 76.704C27.6735 77.3252 27.5225 78.0115 27.54 78.704L23.22 77.4C22.9154 77.2998 22.5851 77.3111 22.288 77.432C22.0912 77.5095 21.9177 77.6366 21.7847 77.8011C21.6516 77.9656 21.5634 78.1618 21.5288 78.3705C21.4941 78.5792 21.5142 78.7933 21.587 78.992C21.6597 79.1906 21.7828 79.367 21.944 79.504C21.6829 79.4816 21.422 79.5486 21.204 79.6939C20.9859 79.8393 20.8238 80.0544 20.744 80.304C20.6775 80.592 20.7125 80.8941 20.8429 81.1594C20.9733 81.4247 21.1913 81.6368 21.46 81.76C21.186 81.9519 20.9923 82.2382 20.916 82.564Z" fill="#E0E0E0"/>
</svg>
