<svg width="114" height="151" viewBox="0 0 114 151" fill="none" xmlns="http://www.w3.org/2000/svg">
<path d="M41.7351 26.4575L26.4 45.2731V75.437L41.6929 94.2104C50.1093 104.546 57.0702 112.942 57.1334 112.899C57.2178 112.857 62.5756 106.297 69.0514 98.3447C75.5271 90.3924 81.0115 83.6846 81.2435 83.4526C81.2435 83.45 81.2435 83.1362 81.2435 90.5611V98.0705L69.4732 113.047C62.7655 121.295 57.1967 128.045 57.0702 128.045C56.9647 128.045 50.2569 119.924 42.1991 110.009C34.1414 100.074 27.2859 91.658 26.9695 91.2994L26.4 90.6244V105.601L41.6296 124.269C50.0038 134.541 56.9436 142.979 57.028 143C57.1124 143.021 64.0733 134.626 72.4685 124.332L87.7403 105.601V75.437L78.881 64.5738C74.0084 58.6043 69.8529 53.5418 69.642 53.3309C69.2834 52.9723 68.9037 53.4152 60.2131 64.0675C55.235 70.1847 51.1429 75.2683 51.1007 75.3526C51.0374 75.4792 55.5303 81.1745 56.8381 82.651C57.028 82.862 58.5256 81.1323 63.1873 75.4159L69.2834 67.9277L69.7475 68.4128C70.0006 68.687 71.4138 70.3534 72.8693 72.1464C75.4638 75.3526 75.506 75.4159 75.1474 75.88C73.4177 78.1792 57.2389 97.8806 57.0702 97.8806C56.9014 97.8806 40.7226 78.1792 38.9929 75.88C38.6343 75.4159 38.7609 75.2682 50.8686 60.4183C57.5764 52.1496 63.0819 45.3575 63.0819 45.2942C63.0819 45.1676 57.26 37.9958 57.0913 37.9325C57.0491 37.9114 51.6702 44.4293 45.1523 52.4449C38.6343 60.4394 33.1289 67.1894 32.8968 67.4214C32.4961 67.8222 32.4961 67.7378 32.4961 60.3129V52.8035L44.6882 37.827C51.3749 29.5794 56.9647 22.8294 57.0702 22.8294C57.1967 22.8294 63.8834 30.9505 71.9412 40.8645C79.999 50.7996 86.8544 59.216 87.1708 59.5746L87.7403 60.2496V45.2731L72.7638 26.9216C64.5162 16.8178 57.6186 8.3592 57.4288 8.10607C57.0702 7.64201 56.8592 7.89514 41.7351 26.4575Z" fill="#3888FF"/>
</svg>
